name Walk3.mot
datacolumns 19
datarows 30
range 3.48500000 3.63000000
endheader

                time	   L_ground_force_vx	   L_ground_force_vy	   L_ground_force_vz	   L_ground_force_px	   L_ground_force_py	   L_ground_force_pz	   R_ground_force_vx	   R_ground_force_vy	   R_ground_force_vz	   R_ground_force_px	   R_ground_force_py	   R_ground_force_pz	   L_ground_torque_x	   L_ground_torque_y	   L_ground_torque_z	   R_ground_torque_x	   R_ground_torque_y	   R_ground_torque_z	
          3.48500000	         -0.00000000	         -0.00000000	         -0.00000000	         -0.00000000	          0.00000000	         -0.00000000	          0.02041065	          0.16233659	          0.00734510	          0.00049790	          0.00000000	          0.00013795	          0.00000000	          0.00000000	          0.00000000	          0.00000000	         -0.00502243	          0.00000000	
          3.49000000	         -0.00000000	         -0.00000000	         -0.00000000	          0.00000000	          0.00000000	         -0.00000000	          0.01281392	          0.13025441	          0.00481268	          0.00063049	          0.00000000	          0.00016830	          0.00000000	          0.00000000	          0.00000000	          0.00000000	         -0.00399514	          0.00000000	
          3.49500000	         -0.00000000	         -0.00000000	         -0.00000000	          0.00000000	          0.00000000	          0.00000000	          0.00692886	          0.09937918	          0.00280806	          0.00066566	          0.00000000	          0.00017445	          0.00000000	          0.00000000	          0.00000000	          0.00000000	         -0.00302040	          0.00000000	
          3.50000000	         -0.00000000	         -0.00000000	         -0.00000000	          0.00000000	          0.00000000	          0.00000000	          0.00260690	          0.07171980	          0.00130045	          0.00063556	          0.00000000	          0.00016460	          0.00000000	         -0.00000000	          0.00000000	          0.00000000	         -0.00215643	          0.00000000	
          3.50500000	         -0.00000000	         -0.00000000	         -0.00000000	          0.00000000	          0.00000000	          0.00000000	         -0.00037087	          0.04831020	          0.00023081	          0.00056600	          0.00000000	          0.00014527	          0.00000000	         -0.00000000	          0.00000000	          0.00000000	         -0.00143184	          0.00000000	
          3.51000000	         -0.00000000	         -0.00000000	         -0.00000000	          0.00000000	          0.00000000	          0.00000000	         -0.00225112	          0.02947733	         -0.00047339	          0.00047663	          0.00000000	          0.00012138	          0.00000000	         -0.00000000	          0.00000000	          0.00000000	         -0.00085394	          0.00000000	
          3.51500000	         -0.00000000	         -0.00000000	         -0.00000000	          0.00000000	          0.00000000	          0.00000000	         -0.00327885	          0.01506887	         -0.00088754	          0.00038162	          0.00000000	          0.00009646	          0.00000000	         -0.00000000	          0.00000000	          0.00000000	         -0.00041580	          0.00000000	
          3.52000000	         -0.00000000	         -0.00000000	         -0.00000000	          0.00000000	          0.00000000	          0.00000000	         -0.00367860	          0.00463725	         -0.00108294	          0.00029051	          0.00000000	          0.00007285	          0.00000000	         -0.00000000	          0.00000000	          0.00000000	         -0.00010195	          0.00000000	
          3.52500000	         -0.00000000	         -0.00000000	         -0.00000000	          0.00000000	          0.00000000	          0.00000000	         -0.00364402	         -0.00241911	         -0.00112259	          0.00020911	          0.00000000	          0.00005195	          0.00000000	         -0.00000000	          0.00000000	          0.00000000	          0.00010739	          0.00000000	
          3.53000000	         -0.00000000	         -0.00000000	         -0.00000000	          0.00000000	          0.00000000	          0.00000000	         -0.00333364	         -0.00675289	         -0.00105924	          0.00014037	          0.00000000	          0.00003444	          0.00000000	         -0.00000000	          0.00000000	          0.00000000	          0.00023313	          0.00000000	
          3.53500000	          0.00000000	         -0.00000000	         -0.00000000	          0.00000000	          0.00000000	          0.00000000	         -0.00287096	         -0.00899798	         -0.00093483	          0.00008518	          0.00000000	          0.00002048	          0.00000000	         -0.00000000	          0.00000000	          0.00000000	          0.00029533	          0.00000000	
          3.54000000	          0.00000000	          0.00000000	         -0.00000000	          0.00000000	          0.00000000	          0.00000000	         -0.00234719	         -0.00972609	         -0.00078113	          0.00004306	          0.00000000	          0.00000992	          0.00000000	         -0.00000000	          0.00000000	          0.00000000	          0.00031186	          0.00000000	
          3.54500000	          0.00000000	          0.00000000	          0.00000000	          0.00000000	          0.00000000	          0.00000000	         -0.00182567	         -0.00942379	         -0.00062078	          0.00001264	          0.00000000	          0.00000235	          0.00000000	         -0.00000000	          0.00000000	          0.00000000	          0.00029780	          0.00000000	
          3.55000000	          0.00000000	          0.00000000	          0.00000000	          0.00000000	          0.00000000	          0.00000000	         -0.00134684	         -0.00848463	         -0.00046885	         -0.00000787	          0.00000000	         -0.00000268	          0.00000000	         -0.00000000	          0.00000000	          0.00000000	          0.00026523	          0.00000000	
          3.55500000	          0.00000000	          0.00000000	          0.00000000	          0.00000000	          0.00000000	          0.00000000	         -0.00093326	         -0.00721133	         -0.00033435	         -0.00002040	          0.00000000	         -0.00000570	          0.00000000	         -0.00000000	          0.00000000	          0.00000000	          0.00022337	          0.00000000	
          3.56000000	          0.00000000	          0.00000000	          0.00000000	         -0.00000000	          0.00000000	          0.00000000	         -0.00059423	         -0.00582446	         -0.00022165	         -0.00002682	          0.00000000	         -0.00000718	          0.00000000	         -0.00000000	          0.00000000	          0.00000000	          0.00017885	          0.00000000	
          3.56500000	          0.00000000	          0.00000000	          0.00000000	         -0.00000000	          0.00000000	         -0.00000000	         -0.00032982	         -0.00447444	         -0.00013185	         -0.00002881	          0.00000000	         -0.00000757	          0.00000000	         -0.00000000	          0.00000000	          0.00000000	          0.00013616	          0.00000000	
          3.57000000	          0.00000000	          0.00000000	          0.00000000	         -0.00000000	          0.00000000	         -0.00000000	         -0.00013417	         -0.00325483	         -0.00006383	         -0.00002782	          0.00000000	         -0.00000721	          0.00000000	          0.00000000	          0.00000000	          0.00000000	          0.00009802	          0.00000000	
          3.57500000	          0.00000000	          0.00000000	          0.00000000	         -0.00000000	          0.00000000	         -0.00000000	          0.00000190	         -0.00221529	         -0.00001516	         -0.00002498	          0.00000000	         -0.00000642	          0.00000000	          0.00000000	          0.00000000	          0.00000000	          0.00006581	          0.00000000	
          3.58000000	          0.00000000	          0.00000000	          0.00000000	         -0.00000000	          0.00000000	         -0.00000000	          0.00008902	         -0.00137346	          0.00001724	         -0.00002118	          0.00000000	         -0.00000540	          0.00000000	          0.00000000	          0.00000000	          0.00000000	          0.00003994	          0.00000000	
          3.58500000	          0.00000000	          0.00000000	          0.00000000	         -0.00000000	          0.00000000	         -0.00000000	          0.00013784	         -0.00072498	          0.00003666	         -0.00001707	          0.00000000	         -0.00000432	          0.00000000	          0.00000000	          0.00000000	          0.00000000	          0.00002020	          0.00000000	
          3.59000000	          0.00000000	          0.00000000	          0.00000000	         -0.00000000	          0.00000000	         -0.00000000	          0.00015825	         -0.00025179	          0.00004621	         -0.00001308	          0.00000000	         -0.00000328	          0.00000000	          0.00000000	          0.00000000	          0.00000000	          0.00000594	          0.00000000	
          3.59500000	          0.00000000	          0.00000000	          0.00000000	         -0.00000000	          0.00000000	         -0.00000000	          0.00015882	          0.00007157	          0.00004869	         -0.00000949	          0.00000000	         -0.00000236	          0.00000000	          0.00000000	          0.00000000	          0.00000000	         -0.00000367	          0.00000000	
          3.60000000	          0.00000000	          0.00000000	          0.00000000	         -0.00000000	          0.00000000	         -0.00000000	          0.00014662	          0.00027328	          0.00004642	         -0.00000644	          0.00000000	         -0.00000158	          0.00000000	          0.00000000	          0.00000000	          0.00000000	         -0.00000955	          0.00000000	
          3.60500000	         -0.00000000	          0.00000000	          0.00000000	         -0.00000000	          0.00000000	         -0.00000000	          0.00012721	          0.00038102	          0.00004130	         -0.00000397	          0.00000000	         -0.00000096	          0.00000000	          0.00000000	          0.00000000	          0.00000000	         -0.00001256	          0.00000000	
          3.61000000	         -0.00000000	         -0.00000000	          0.00000000	         -0.00000000	          0.00000000	         -0.00000000	          0.00010470	          0.00041997	          0.00003474	         -0.00000208	          0.00000000	         -0.00000048	          0.00000000	          0.00000000	          0.00000000	          0.00000000	         -0.00001350	          0.00000000	
          3.61500000	         -0.00000000	         -0.00000000	         -0.00000000	         -0.00000000	          0.00000000	         -0.00000000	          0.00008198	          0.00041174	          0.00002779	         -0.00000070	          0.00000000	         -0.00000014	          0.00000000	          0.00000000	          0.00000000	          0.00000000	         -0.00001303	          0.00000000	
          3.62000000	         -0.00000000	         -0.00000000	         -0.00000000	         -0.00000000	          0.00000000	         -0.00000000	          0.00006093	          0.00037390	          0.00002114	          0.00000024	          0.00000000	          0.00000009	          0.00000000	          0.00000000	          0.00000000	          0.00000000	         -0.00001170	          0.00000000	
          3.62500000	         -0.00000000	         -0.00000000	         -0.00000000	         -0.00000000	          0.00000000	         -0.00000000	          0.00004261	          0.00032006	          0.00001520	          0.00000083	          0.00000000	          0.00000023	          0.00000000	          0.00000000	          0.00000000	          0.00000000	         -0.00000993	          0.00000000	
          3.63000000	         -0.00000000	         -0.00000000	         -0.00000000	          0.00000000	          0.00000000	         -0.00000000	          0.00002749	          0.00026022	          0.00001019	          0.00000114	          0.00000000	          0.00000031	          0.00000000	          0.00000000	          0.00000000	          0.00000000	         -0.00000800	          0.00000000	
